<?xml version="1.0" standalone="no"?><!DOCTYPE svg PUBLIC "-//W3C//DTD SVG 1.1//EN" "http://www.w3.org/Graphics/SVG/1.1/DTD/svg11.dtd"><svg class="icon" width="200px" height="200.00px" viewBox="0 0 1024 1024" version="1.1" xmlns="http://www.w3.org/2000/svg"><path fill="#ff5777" d="M384.475429 565.723429a27.117714 27.117714 0 0 0 0 54.235428h126.994285v147.456a27.026286 27.026286 0 1 0 54.070857 0V619.885714h133.211429a27.117714 27.117714 0 0 0 0-54.235428h-133.211429v-86.857143h133.211429a27.117714 27.117714 0 0 0 0-54.235429h-106.057143l79.689143-99.584a27.062857 27.062857 0 1 0-42.166857-33.956571l-90.038857 112.512-90.038857-112.512a27.062857 27.062857 0 1 0-42.166858 33.956571l79.689143 99.584h-103.186285a27.117714 27.117714 0 0 0 0 54.235429h126.994285v86.948571h-126.994285zM847.122286 109.714286H234.057143a103.936 103.936 0 0 0-103.68 103.917714v143.158857l-47.798857-47.926857a27.081143 27.081143 0 1 0-38.217143 38.4l88.704 88.978286a27.044571 27.044571 0 0 0 25.033143 16.859428c0.493714 0 0.987429-0.109714 1.481143-0.146285s0.987429 0.146286 1.481142 0.146285a27.062857 27.062857 0 0 0 25.033143-16.859428l88.704-88.978286a27.081143 27.081143 0 1 0-38.235428-38.4l-52.132572 52.297143v-147.529143A49.737143 49.737143 0 0 1 234.057143 163.876571h613.065143a49.737143 49.737143 0 0 1 49.590857 49.755429v614.930286a49.737143 49.737143 0 0 1-49.590857 49.755428H234.057143a49.737143 49.737143 0 0 1-49.590857-49.755428v-224.914286a27.026286 27.026286 0 1 0-54.070857 0v224.914286A103.936 103.936 0 0 0 234.057143 932.571429h613.065143A103.936 103.936 0 0 0 950.857143 828.562286V213.632A103.954286 103.954286 0 0 0 847.122286 109.714286z"  /></svg>