<?xml version="1.0" standalone="no"?><!DOCTYPE svg PUBLIC "-//W3C//DTD SVG 1.1//EN" "http://www.w3.org/Graphics/SVG/1.1/DTD/svg11.dtd"><svg t="1597824196417" class="icon" viewBox="0 0 1024 1024" version="1.1" xmlns="http://www.w3.org/2000/svg" p-id="10870" xmlns:xlink="http://www.w3.org/1999/xlink" width="200" height="200"><defs><style type="text/css"></style></defs><path d="M201.3952 827.7248a442.88 442.88 0 1 1 626.3296 0 443.392 443.392 0 0 1-626.3296 0zM777.216 251.904a371.44576 371.44576 0 1 0 0 525.312 371.8656 371.8656 0 0 0 0-525.312z" fill="#ff5777" p-id="10871"></path><path d="M666.624 616.04864L565.11488 514.56 666.624 413.07648a35.74272 35.74272 0 1 0-50.54976-50.54976L514.56 464.01024 413.07648 362.5216a35.74784 35.74784 0 0 0-50.55488 50.54976L464.01024 514.56l-101.48352 101.48864a35.74272 35.74272 0 1 0 50.54976 50.54976l101.48352-101.48352 101.48352 101.50912a35.74784 35.74784 0 1 0 50.58048-50.57536z" fill="#ff5777" p-id="10872"></path></svg>