<?xml version="1.0" standalone="no"?><!DOCTYPE svg PUBLIC "-//W3C//DTD SVG 1.1//EN" "http://www.w3.org/Graphics/SVG/1.1/DTD/svg11.dtd"><svg class="icon" width="200px" height="200.00px" viewBox="0 0 1024 1024" version="1.1" xmlns="http://www.w3.org/2000/svg"><path fill="#515151" d="M924.119175 99.589183c-5.732561-0.425695-56.681954-2.578732-97.54871 35.660174C796.09129 163.775041 780.633227 205.51877 780.633227 259.328303c0 101.022835 0.150426 369.481076 0.150426 369.456516 0 51.994188-42.300408 94.300736-94.300736 94.300736L235.598856 723.085556c-51.994188 0-94.294596-42.306548-94.294596-94.300736L141.30426 406.311913c0-51.994188 42.300408-94.288456 94.294596-94.288456l411.05596 0c21.234627 0 38.451754-17.210987 38.451754-38.451754s-17.217127-38.451754-38.451754-38.451754L235.598856 235.119949c-94.40102 0-171.198104 76.78992-171.198104 171.190941l0 222.472907c0 94.40102 76.79606 171.204244 171.198104 171.204244l450.884061 0c94.40102 0 171.204244-76.8022 171.204244-171.228803 0 0-0.150426-268.409123-0.150426-369.430934 0-31.279401 7.084349-53.959959 21.053502-67.427692 15.833617-15.257495 37.84391-15.582907 40.229237-15.582907 0.162706-0.01228 0.218988-0.01228 0.206708 0 21.234627 1.464351 39.502689-14.632255 40.916898-35.82288C961.343985 119.303176 945.30366 100.991112 924.119175 99.589183zM647.205355 397.312958l-371.521548 0c-21.234627 0-38.451754 17.210987-38.451754 38.451754s17.217127 38.451754 38.451754 38.451754l371.521548 0c21.234627 0 38.451754-17.210987 38.451754-38.451754S668.439982 397.312958 647.205355 397.312958zM647.205355 559.604204l-371.521548 0c-21.234627 0-38.451754 17.210987-38.451754 38.451754s17.217127 38.451754 38.451754 38.451754l371.521548 0c21.234627 0 38.451754-17.210987 38.451754-38.451754S668.439982 559.604204 647.205355 559.604204zM818.281685 873.307929m-51.268664 0a50.101 50.101 0 1 0 102.537328 0 50.101 50.101 0 1 0-102.537328 0ZM115.240651 873.307929m-51.268664 0a50.101 50.101 0 1 0 102.537328 0 50.101 50.101 0 1 0-102.537328 0Z" /></svg>