<?xml version="1.0" standalone="no"?><!DOCTYPE svg PUBLIC "-//W3C//DTD SVG 1.1//EN" "http://www.w3.org/Graphics/SVG/1.1/DTD/svg11.dtd"><svg class="icon" width="200px" height="200.00px" viewBox="0 0 1024 1024" version="1.1" xmlns="http://www.w3.org/2000/svg"><path fill="#ff5777" d="M117.833143 256.256a26.038857 26.038857 0 0 0 26.349714-25.709714v-22.4a47.707429 47.707429 0 0 1 48.237714-47.049143h433.846858a47.707429 47.707429 0 0 1 48.237714 47.049143v22.4a26.349714 26.349714 0 0 0 52.699428 0v-22.4A99.84 99.84 0 0 0 626.267429 109.714286H192.420571A99.84 99.84 0 0 0 91.428571 208.146286v22.4a26.038857 26.038857 0 0 0 26.404572 25.709714z m602.788571 395.556571a36.443429 36.443429 0 1 0-37.339428-36.425142 36.900571 36.900571 0 0 0 37.339428 36.425142z m111.012572-335.341714H196.681143a99.876571 99.876571 0 0 0-100.973714 98.486857v400.822857A99.876571 99.876571 0 0 0 196.681143 914.285714H831.634286A99.858286 99.858286 0 0 0 932.571429 815.798857v-400.822857a99.858286 99.858286 0 0 0-100.937143-98.505143z m0 546.413714H196.681143a47.744 47.744 0 0 1-48.274286-47.085714v-400.822857a47.744 47.744 0 0 1 48.274286-47.085714H831.634286a47.744 47.744 0 0 1 48.274285 47.085714v65.426286H659.730286a99.968 99.968 0 0 0-101.065143 98.596571v72.758857a99.968 99.968 0 0 0 101.065143 98.596572H879.908571v65.426285a47.744 47.744 0 0 1-48.274285 47.104z m44.434285-331.081142v167.168H659.730286a47.853714 47.853714 0 0 1-48.384-47.195429v-72.777143a47.853714 47.853714 0 0 1 48.384-47.195428H876.068571z"  /></svg>