<?xml version="1.0" standalone="no"?><!DOCTYPE svg PUBLIC "-//W3C//DTD SVG 1.1//EN" "http://www.w3.org/Graphics/SVG/1.1/DTD/svg11.dtd"><svg class="icon" width="200px" height="200.00px" viewBox="0 0 1024 1024" version="1.1" xmlns="http://www.w3.org/2000/svg"><path fill="#ff5777" d="M853.632 128H170.276571A97.188571 97.188571 0 0 0 73.142857 224.914286v574.171428A97.188571 97.188571 0 0 0 170.276571 896h683.355429A97.188571 97.188571 0 0 0 950.857143 799.085714V224.914286A97.188571 97.188571 0 0 0 853.632 128z m46.464 96.914286v99.181714H659.492571V178.56h194.139429a46.464 46.464 0 0 1 46.464 46.354286z m-473.6-45.824h182.345143V570.514286L541.257143 511.232a36.297143 36.297143 0 0 0-47.853714 0l-66.998858 59.044571V179.090286zM170.276571 178.56h205.403429v145.536H123.812571V224.914286a46.464 46.464 0 0 1 46.464-46.354286z m683.355429 666.806857H170.276571A46.464 46.464 0 0 1 123.812571 799.085714V374.857143h251.867429v227.657143a36.187429 36.187429 0 0 0 60.141714 27.044571l81.572572-71.844571 82.029714 71.990857a36.187429 36.187429 0 0 0 60.086857-27.099429V374.710857h240.585143V799.085714a46.464 46.464 0 0 1-46.464 46.281143z"  /></svg>