<?xml version="1.0" standalone="no"?><!DOCTYPE svg PUBLIC "-//W3C//DTD SVG 1.1//EN" "http://www.w3.org/Graphics/SVG/1.1/DTD/svg11.dtd"><svg class="icon" width="200px" height="200.00px" viewBox="0 0 1024 1024" version="1.1" xmlns="http://www.w3.org/2000/svg"><path fill="#ff5777" d="M514.56 498.688c-114.72384 0-222.99648-19.92704-304.88576-56.10496C120.68864 403.26144 71.68 348.27776 71.68 287.744s49.01376-115.51744 138.00448-154.83392C291.56864 96.72704 399.872 76.8 514.56 76.8s222.98624 19.92704 304.87552 56.10496C908.43136 172.22656 957.44 227.21536 957.44 287.744s-49.00864 115.51744-137.99936 154.83392C737.55136 478.76096 629.27872 498.688 514.56 498.688z m0-367.2064c-228.79744 0-388.23936 82.3552-388.23936 156.2624S285.76768 444.0064 514.56 444.0064s388.22912-82.3552 388.22912-156.2624-159.4368-156.2624-388.22912-156.2624z m0 592.92672c-114.7136 0-222.99648-19.92704-304.88576-56.10496C120.68864 628.98176 71.68 573.99296 71.68 513.46432a118.784 118.784 0 0 1 19.28704-63.75936 27.33056 27.33056 0 1 1 46.24896 29.10208 65.024 65.024 0 0 0-10.9056 34.65728c0 73.91232 159.44192 156.26752 388.23936 156.26752s388.22912-82.3552 388.22912-156.26752a65.66912 65.66912 0 0 0-11.5968-35.75296 27.33056 27.33056 0 1 1 45.85984-29.73696A119.296 119.296 0 0 1 957.44 513.46432c0 60.52864-49.00864 115.51744-137.99936 154.83904-81.88928 36.17792-190.16192 56.10496-304.88064 56.10496z m0 222.79168c-114.72384 0-222.99648-19.92704-304.88576-56.10496C120.68864 851.77344 71.68 796.78464 71.68 736.256a118.784 118.784 0 0 1 19.28704-63.75936 27.33056 27.33056 0 1 1 46.26944 29.10208 65.024 65.024 0 0 0-10.9056 34.65728c0 73.91232 159.44192 156.26752 388.23936 156.26752s388.22912-82.3552 388.22912-156.26752a65.64352 65.64352 0 0 0-11.5968-35.74784 27.33056 27.33056 0 1 1 45.85984-29.73696A119.296 119.296 0 0 1 957.44 736.256c0 60.52864-49.00864 115.51744-137.99936 154.83904C737.55136 927.27296 629.27872 947.2 514.56 947.2z"  /></svg>