<?xml version="1.0" standalone="no"?><!DOCTYPE svg PUBLIC "-//W3C//DTD SVG 1.1//EN" "http://www.w3.org/Graphics/SVG/1.1/DTD/svg11.dtd"><svg class="icon" width="200px" height="200.00px" viewBox="0 0 1024 1024" version="1.1" xmlns="http://www.w3.org/2000/svg"><path fill="#ff5777" d="M283.867429 931.949714a69.485714 69.485714 0 0 1-40.941715-13.531428 68.498286 68.498286 0 0 1-25.325714-77.805715l68.150857-209.536a14.756571 14.756571 0 0 0-5.394286-16.566857l-178.413714-129.481143a69.485714 69.485714 0 0 1 40.941714-125.860571h220.580572a14.793143 14.793143 0 0 0 14.098286-10.24l68.169142-209.517714A68.626286 68.626286 0 0 1 512 91.428571a68.589714 68.589714 0 0 1 66.249143 48.073143l68.169143 209.536a14.793143 14.793143 0 0 0 14.098285 10.24h220.562286a69.485714 69.485714 0 0 1 40.941714 125.860572l-178.450285 129.499428a14.756571 14.756571 0 0 0-5.394286 16.566857L806.4 840.612571a69.632 69.632 0 0 1-107.190857 77.787429l-178.450286-129.499429a14.811429 14.811429 0 0 0-17.444571 0l-178.432 129.499429a69.485714 69.485714 0 0 1-41.014857 13.549714z m-140.982858-518.016a14.811429 14.811429 0 0 0-8.722285 26.752l178.523428 129.554286a69.357714 69.357714 0 0 1 25.289143 77.787429L269.769143 857.6a14.829714 14.829714 0 0 0 22.802286 16.457143l178.432-129.499429a69.485714 69.485714 0 0 1 81.883428 0L731.428571 874.057143a14.829714 14.829714 0 0 0 22.820572-16.566857l-68.224-209.481143a69.357714 69.357714 0 0 1 25.289143-77.769143l178.468571-129.554286a14.811429 14.811429 0 0 0-8.722286-26.806857H660.498286a69.485714 69.485714 0 0 1-66.212572-48.018286L526.08 156.342857a14.171429 14.171429 0 0 0-14.08-10.24 14.189714 14.189714 0 0 0-14.098286 10.24L429.714286 365.878857a69.485714 69.485714 0 0 1-66.249143 48.073143H142.884571z"  /></svg>