<?xml version="1.0" standalone="no"?><!DOCTYPE svg PUBLIC "-//W3C//DTD SVG 1.1//EN" "http://www.w3.org/Graphics/SVG/1.1/DTD/svg11.dtd"><svg class="icon" width="200px" height="200.00px" viewBox="0 0 1024 1024" version="1.1" xmlns="http://www.w3.org/2000/svg"><path fill="#ff5777" d="M912.457143 585.910857A45.568 45.568 0 0 0 950.857143 541.257143v-91.593143a103.003429 103.003429 0 0 0-103.753143-101.979429H810.057143L559.780571 102.820571a105.179429 105.179429 0 0 0-146.742857 0L326.070857 188.342857a104.539429 104.539429 0 0 0-108.873143 49.152l-66.834285 113.700572A102.4 102.4 0 0 0 73.142857 449.664v399.177143A103.003429 103.003429 0 0 0 176.932571 950.857143h670.153143A103.003429 103.003429 0 0 0 950.857143 848.841143v-91.538286a45.586286 45.586286 0 0 0-38.4-44.708571 64.146286 64.146286 0 0 1 0-126.683429zM451.309714 140.452571a50.304 50.304 0 0 1 70.180572 0L732.342857 347.684571h-112.932571l-240.384-136.192zM264.082286 264.045714a49.243429 49.243429 0 0 1 30.134857-22.674285 50.066286 50.066286 0 0 1 37.650286 4.864l178.870857 101.485714H214.948571z m632.685714 499.712v85.101715a49.243429 49.243429 0 0 1-49.609143 48.768H176.932571a49.243429 49.243429 0 0 1-49.609142-48.768V449.664a49.243429 49.243429 0 0 1 49.609142-48.768h670.153143a49.243429 49.243429 0 0 1 49.609143 48.768v85.083429a117.028571 117.028571 0 0 0 0 229.010285zM505.6 632.685714a26.605714 26.605714 0 1 0 0-53.211428h-43.977143l41.124572-69.997715a26.368 26.368 0 0 0-9.892572-36.352 27.428571 27.428571 0 0 0-36.992 9.746286l-42.605714 72.704-42.770286-72.649143a27.428571 27.428571 0 0 0-36.973714-9.746285 26.368 26.368 0 0 0-9.910857 36.352l41.124571 69.997714H323.84a26.605714 26.605714 0 1 0 0 53.211428h60.690286v36.096H323.84a26.605714 26.605714 0 1 0 0 53.211429h60.690286v62.72a27.081143 27.081143 0 0 0 54.162285 0v-62.72h66.925715a26.605714 26.605714 0 1 0 0-53.211429H438.674286V632.685714h66.925714z m177.462857-37.814857h52.461714v-101.467428h-52.443428v101.540571z m0 208.713143h52.461714V702.171429h-52.443428v101.522285z"  /></svg>