<?xml version="1.0" standalone="no"?><!DOCTYPE svg PUBLIC "-//W3C//DTD SVG 1.1//EN" "http://www.w3.org/Graphics/SVG/1.1/DTD/svg11.dtd"><svg class="icon" width="200px" height="200.00px" viewBox="0 0 1024 1024" version="1.1" xmlns="http://www.w3.org/2000/svg"><path fill="#ff5777" d="M288.420571 182.326857h-3.474285a202.971429 202.971429 0 0 0-138.112 55.68 175.542857 175.542857 0 0 0-54.491429 110.884572 24.539429 24.539429 0 0 0-0.914286 6.838857l0.219429 12.068571v0.237714l8.557714 460.8a24.813714 24.813714 0 0 0 4.132572 13.056A141.147429 141.147429 0 0 0 245.248 950.857143h2.505143a138.331429 138.331429 0 0 0 141.001143-135.424 145.28 145.28 0 0 0-28.928-74.368 388.205714 388.205714 0 0 1-10.971429-18.102857c-72.118857-133.193143 67.492571-221.403429 73.398857-225.060572l2.377143-1.444571 2.029714-1.828572a173.494857 173.494857 0 0 0-1.700571-261.010285 203.611429 203.611429 0 0 0-136.539429-51.291429zM388.48 455.314286c-65.517714 41.234286-165.522286 152.740571-90.459429 291.364571 3.894857 7.204571 8.338286 14.244571 12.635429 21.065143a105.453714 105.453714 0 0 1 21.156571 48.585143 83.437714 83.437714 0 0 1-85.046857 81.664h-1.517714a83.858286 83.858286 0 0 1-86.528-78.902857 24.466286 24.466286 0 0 0-1.92-8.868572L148.589714 366.994286a134.747429 134.747429 0 0 1 137.344-131.803429h2.432a135.314286 135.314286 0 0 1 139.702857 127.451429 123.739429 123.739429 0 0 1-39.588571 92.672zM932.571429 668.196571l-8.777143-473.179428a24.758857 24.758857 0 0 0-4.077715-12.982857 129.444571 129.444571 0 0 0-41.289142-71.570286A149.522286 149.522286 0 0 0 776.155429 73.142857a138.331429 138.331429 0 0 0-141.001143 135.314286 145.225143 145.225143 0 0 0 28.946285 74.404571c4.004571 6.363429 7.808 12.379429 10.971429 18.066286 72.118857 133.211429-67.492571 221.421714-73.417143 225.060571l-2.377143 1.444572-2.011428 1.828571a173.476571 173.476571 0 0 0 1.682285 260.992 203.593143 203.593143 0 0 0 136.594286 51.2h3.474286a202.806857 202.806857 0 0 0 138.093714-55.68 175.542857 175.542857 0 0 0 54.491429-110.848 24.173714 24.173714 0 0 0 0.969143-6.729143z m-96.475429 80.969143a147.565714 147.565714 0 0 1-197.632 3.145143 123.172571 123.172571 0 0 1-3.053714-183.625143c65.517714-41.234286 165.522286-152.740571 90.459428-291.364571-3.894857-7.204571-8.338286-14.226286-12.617143-21.028572a105.398857 105.398857 0 0 1-21.156571-48.603428A83.437714 83.437714 0 0 1 777.142857 125.933714a89.6 89.6 0 0 1 61.622857 22.528 77.202286 77.202286 0 0 1 26.386286 56.338286 24.649143 24.649143 0 0 0 1.938286 8.868571l8.228571 443.117715a123.977143 123.977143 0 0 1-39.222857 92.379428z"  /></svg>